# xmcd
#
# Track frame offsets:
# 180
# 18927
# 42002
# 67285
# 99072
# 132520
# 172087
# 198742
# 226005
#
# Disc length: 3469 seconds
#
# Revision: 0
# Processed by: cddbd v1.4PL0 Copyright (c) Steve Scherf et al.
# Submitted via: Audion 3.0.2 (http://www.panic.com/audion/)
#
DISCID=750d8b09
DTITLE=Sebastian S. - Personal Space Invader
DYEAR=1900
DGENRE=
TTITLE0=Where's The Place?
TTITLE1=Wave-O-Matic
TTITLE2=The Bass In The Place
TTITLE3=Conventional
TTITLE4=Info-Structure
TTITLE5=Chilling With The Sound
TTITLE6=X-Tract
TTITLE7=Some Like It Cool
TTITLE8=100% Groove
EXTD=
EXTT0=
EXTT1=
EXTT2=
EXTT3=
EXTT4=
EXTT5=
EXTT6=
EXTT7=
EXTT8=
PLAYORDER=
